<svg width="32" height="32" viewBox="0 0 32 32" fill="none" xmlns="http://www.w3.org/2000/svg">
    <g clip-path="url(#clip0_26_20)">
    <path d="M32.0001 23C32.0001 27.9706 27.9707 32 23.0001 32L0.00012207 32L32.0001 3.05176e-05L32.0001 23Z" fill="black"/>
    <path d="M3.43324e-05 9.00005C1.53712e-05 4.02947 4.02946 3.84278e-06 9.00004 8.58308e-06L32.0001 3.05176e-05L0.00012207 32L3.43324e-05 9.00005Z" fill="#FFAE00"/>
    <path d="M3.17651 14.1764C5.51966 11.8333 10.585 13.0996 14.4902 17.0049C18.3955 20.9101 19.6618 25.9754 17.3186 28.3186C14.9755 30.6617 9.91018 29.3954 6.00494 25.4901C2.0997 21.5849 0.833365 16.5196 3.17651 14.1764Z" fill="black"/>
    <path d="M14.1765 3.17644C16.5197 0.833294 21.585 2.09962 25.4902 6.00487C29.3955 9.91011 30.6618 14.9754 28.3186 17.3186C25.9755 19.6617 20.9102 18.3954 17.0049 14.4901C13.0997 10.5849 11.8334 5.51958 14.1765 3.17644Z" fill="#FFAE00"/>
    </g>
    <defs>
    <clipPath id="clip0_26_20">
    <rect width="32.0001" height="32" fill="white"/>
    </clipPath>
    </defs>
    </svg>
    