<svg width="87" height="16" viewBox="0 0 87 16" fill="none" xmlns="http://www.w3.org/2000/svg">
    <g clip-path="url(#clip0_2201_5)">
    <rect x="56.2374" width="30" height="16" fill="black"/>
    <path d="M58.2374 13.584V2.384H60.8294L64.2694 9.36L67.6614 2.384H70.2374V13.584H68.0774V6.048L65.1014 12.016H63.3894L60.3974 6.064V13.584H58.2374Z" fill="#FFAE00"/>
    <path d="M76.1852 13.776C75.4172 13.776 74.7239 13.6 74.1052 13.248C73.4972 12.8853 73.0119 12.3893 72.6492 11.76C72.2972 11.12 72.1212 10.3893 72.1212 9.568C72.1212 8.736 72.2972 8.00533 72.6492 7.376C73.0119 6.74667 73.5026 6.256 74.1212 5.904C74.7399 5.54133 75.4332 5.36 76.2012 5.36C76.9799 5.36 77.6732 5.54133 78.2812 5.904C78.8999 6.256 79.3852 6.74667 79.7372 7.376C80.0999 8.00533 80.2812 8.736 80.2812 9.568C80.2812 10.3893 80.0999 11.12 79.7372 11.76C79.3852 12.3893 78.8999 12.8853 78.2812 13.248C77.6626 13.6 76.9639 13.776 76.1852 13.776ZM76.1852 11.904C76.5372 11.904 76.8519 11.8187 77.1292 11.648C77.4172 11.4773 77.6466 11.216 77.8172 10.864C77.9879 10.512 78.0732 10.08 78.0732 9.568C78.0732 9.04533 77.9879 8.61333 77.8172 8.272C77.6572 7.92 77.4332 7.65867 77.1452 7.488C76.8679 7.31733 76.5532 7.232 76.2012 7.232C75.8599 7.232 75.5452 7.31733 75.2572 7.488C74.9692 7.65867 74.7399 7.92 74.5692 8.272C74.3986 8.61333 74.3132 9.04533 74.3132 9.568C74.3132 10.08 74.3986 10.512 74.5692 10.864C74.7399 11.216 74.9639 11.4773 75.2412 11.648C75.5292 11.8187 75.8439 11.904 76.1852 11.904Z" fill="#FFAE00"/>
    <path d="M82.1909 13.584V5.552H84.3509V13.584H82.1909ZM83.2789 4.432C82.8842 4.432 82.5642 4.32 82.3189 4.096C82.0735 3.86133 81.9509 3.568 81.9509 3.216C81.9509 2.864 82.0735 2.576 82.3189 2.352C82.5642 2.11733 82.8842 2 83.2789 2C83.6735 2 83.9935 2.11733 84.2389 2.352C84.4949 2.576 84.6229 2.864 84.6229 3.216C84.6229 3.568 84.4949 3.86133 84.2389 4.096C83.9935 4.32 83.6735 4.432 83.2789 4.432Z" fill="#FFAE00"/>
    <path d="M0.0880127 13.584V2.384H2.24801V11.904H7.17601V13.584H0.0880127Z" fill="black"/>
    <path d="M9.02589 13.584V5.552H11.1859V13.584H9.02589ZM10.1139 4.432C9.71922 4.432 9.39922 4.32 9.15389 4.096C8.90855 3.86133 8.78589 3.568 8.78589 3.216C8.78589 2.864 8.90855 2.576 9.15389 2.352C9.39922 2.11733 9.71922 2 10.1139 2C10.5086 2 10.8286 2.11733 11.0739 2.352C11.3299 2.576 11.4579 2.864 11.4579 3.216C11.4579 3.568 11.3299 3.86133 11.0739 4.096C10.8286 4.32 10.5086 4.432 10.1139 4.432Z" fill="black"/>
    <path d="M15.4969 13.584L12.5529 5.552H14.8249L16.8249 11.552L18.8089 5.552H21.0649L18.1209 13.584H15.4969Z" fill="black"/>
    <path d="M22.3841 13.584V5.552H24.3041L24.4961 7.04C24.6988 6.688 24.9441 6.38933 25.2321 6.144C25.5201 5.888 25.8508 5.696 26.2241 5.568C26.6081 5.42933 27.0295 5.36 27.4881 5.36V7.648H26.7681C26.4481 7.648 26.1495 7.68533 25.8721 7.76C25.6055 7.824 25.3708 7.94133 25.1681 8.112C24.9655 8.28267 24.8108 8.512 24.7041 8.8C24.5975 9.088 24.5441 9.45067 24.5441 9.888V13.584H22.3841Z" fill="black"/>
    <path d="M32.6468 13.776C31.8361 13.776 31.1161 13.6053 30.4868 13.264C29.8681 12.912 29.3828 12.4267 29.0308 11.808C28.6894 11.1787 28.5188 10.4587 28.5188 9.648C28.5188 8.80533 28.6894 8.064 29.0308 7.424C29.3721 6.784 29.8521 6.28267 30.4708 5.92C31.1001 5.54667 31.8254 5.36 32.6468 5.36C33.4468 5.36 34.1454 5.536 34.7428 5.888C35.3401 6.22933 35.8041 6.69867 36.1348 7.296C36.4761 7.89333 36.6468 8.57067 36.6468 9.328C36.6468 9.43467 36.6414 9.55733 36.6308 9.696C36.6308 9.824 36.6254 9.95733 36.6148 10.096H30.0548V8.768H34.4548C34.4334 8.26667 34.2521 7.86667 33.9108 7.568C33.5694 7.25867 33.1534 7.104 32.6628 7.104C32.2894 7.104 31.9481 7.18933 31.6388 7.36C31.3294 7.53067 31.0841 7.78667 30.9028 8.128C30.7321 8.45867 30.6468 8.88 30.6468 9.392V9.856C30.6468 10.2933 30.7268 10.6773 30.8868 11.008C31.0574 11.328 31.2921 11.5787 31.5908 11.76C31.8894 11.9307 32.2361 12.016 32.6308 12.016C33.0254 12.016 33.3508 11.9307 33.6068 11.76C33.8734 11.5893 34.0761 11.3653 34.2148 11.088H36.4068C36.2574 11.6 36.0068 12.0587 35.6548 12.464C35.3028 12.8693 34.8708 13.1893 34.3588 13.424C33.8468 13.6587 33.2761 13.776 32.6468 13.776Z" fill="black"/>
    <path d="M50.6774 13.584L44.5814 7.52C44.0801 7.02933 43.7281 6.58667 43.5254 6.192C43.3227 5.78667 43.2214 5.36 43.2214 4.912C43.2214 4.4 43.3494 3.94133 43.6054 3.536C43.8721 3.12 44.2454 2.79467 44.7254 2.56C45.2161 2.31467 45.8081 2.192 46.5014 2.192C47.2054 2.192 47.7921 2.32 48.2614 2.576C48.7307 2.832 49.0881 3.168 49.3334 3.584C49.5894 4 49.7067 4.464 49.6854 4.976H47.6374C47.6374 4.60267 47.5254 4.32 47.3014 4.128C47.0774 3.936 46.8054 3.84 46.4854 3.84C46.1227 3.84 45.8294 3.94133 45.6054 4.144C45.3921 4.336 45.2854 4.58667 45.2854 4.896C45.2854 5.16267 45.3654 5.43467 45.5254 5.712C45.6961 5.97867 45.9414 6.288 46.2614 6.64L53.2374 13.584H50.6774ZM45.7814 13.76C44.9707 13.76 44.2614 13.6213 43.6534 13.344C43.0454 13.056 42.5761 12.656 42.2454 12.144C41.9147 11.632 41.7494 11.0293 41.7494 10.336C41.7494 9.80267 41.8561 9.30667 42.0694 8.848C42.2934 8.37867 42.6294 7.968 43.0774 7.616C43.5254 7.25333 44.0854 6.96533 44.7574 6.752L45.5734 6.496L46.5334 7.824L45.7814 8.064C45.1201 8.27733 44.6294 8.57067 44.3094 8.944C44.0001 9.30667 43.8454 9.728 43.8454 10.208C43.8454 10.5387 43.9254 10.8427 44.0854 11.12C44.2561 11.3867 44.4961 11.6 44.8054 11.76C45.1147 11.92 45.4774 12 45.8934 12C46.4694 12 46.9867 11.872 47.4454 11.616C47.9147 11.36 48.3627 10.9493 48.7894 10.384C48.9814 10.128 49.1734 9.84 49.3654 9.52C49.5574 9.2 49.7494 8.84267 49.9414 8.448L50.2774 7.76H52.4694L51.9254 8.864C51.6587 9.41867 51.3867 9.92533 51.1094 10.384C50.8321 10.8427 50.5441 11.2533 50.2454 11.616C49.6267 12.3627 48.9547 12.9067 48.2294 13.248C47.5147 13.5893 46.6987 13.76 45.7814 13.76Z" fill="black"/>
    </g>
    <defs>
    <clipPath id="clip0_2201_5">
    <rect width="86.1494" height="16" fill="white" transform="translate(0.0880127)"/>
    </clipPath>
    </defs>
    </svg>
    